<?xml version="1.0" encoding="utf-8"?>
<!-- Generator: Adobe Illustrator 16.0.0, SVG Export Plug-In . SVG Version: 6.00 Build 0)  -->
<!DOCTYPE svg PUBLIC "-//W3C//DTD SVG 1.1//EN" "http://www.w3.org/Graphics/SVG/1.1/DTD/svg11.dtd">
<svg version="1.1" id="Layer_1" xmlns="http://www.w3.org/2000/svg" xmlns:xlink="http://www.w3.org/1999/xlink" x="0px" y="0px"
	 width="56px" height="50px" viewBox="0 0 56 50" enable-background="new 0 0 56 50" xml:space="preserve">
<g>
	<path fill="#EFEEEE" d="M28,12.37c-6.902,0-12.497,5.595-12.497,12.497c0,6.9,5.595,12.495,12.497,12.495
		c6.9,0,12.497-5.595,12.497-12.496C40.497,17.964,34.9,12.37,28,12.37z M33.593,22.729c-2.311,4.976-2.311,4.976-7.944,7.885
		c-1.771,0.915-3.657,1.642-5.479,2.48c-0.088-0.104-0.177-0.209-0.266-0.311c1.583-3.417,3.158-6.835,4.758-10.244
		c0.138-0.293,0.387-0.616,0.667-0.75c3.487-1.658,6.991-3.282,11-5.153C35.252,18.993,34.396,21,33.593,22.729z"/>
	<path fill="#EFEEEE" d="M28,1.936c-12.665,0-22.931,10.266-22.931,22.931c0,12.663,10.266,22.93,22.931,22.93
		c12.664,0,22.932-10.267,22.932-22.931C50.93,12.202,40.664,1.936,28,1.936z M27.888,39.612
		c-8.043-0.044-14.542-6.645-14.501-14.727c0.041-8.049,6.629-14.54,14.719-14.5c8.044,0.04,14.548,6.638,14.505,14.718
		C42.57,33.145,35.961,39.656,27.888,39.612z"/>
	<path fill="#EFEEEE" d="M0,0v50h56V0H0z M27.869,50c-13.8,0-25-11.2-25-25s11.2-25,25-25c13.799,0,25,11.2,25,25
		S41.668,50,27.869,50z"/>
	<path fill="#EFEEEE" d="M26.503,23.349c-0.15,0.072-0.284,0.245-0.359,0.403c-0.859,1.828-1.704,3.664-2.553,5.498
		c0.048,0.054,0.095,0.111,0.143,0.167c0.979-0.45,1.991-0.841,2.94-1.332c3.023-1.562,3.023-1.562,4.264-4.232
		c0.432-0.929,0.893-2.005,1.471-3.27C30.255,21.588,28.375,22.46,26.503,23.349z M28,25.875c-0.543,0-0.981-0.439-0.981-0.981
		s0.439-0.981,0.981-0.981c0.541,0,0.98,0.44,0.98,0.981C28.98,25.436,28.541,25.875,28,25.875z"/>
	<circle fill="#EFEEEE" cx="28" cy="24.866" r="0.388"/>
</g>
</svg>
