<?xml version="1.0" encoding="utf-8"?>
<!-- Generator: Adobe Illustrator 16.0.0, SVG Export Plug-In . SVG Version: 6.00 Build 0)  -->
<!DOCTYPE svg PUBLIC "-//W3C//DTD SVG 1.1//EN" "http://www.w3.org/Graphics/SVG/1.1/DTD/svg11.dtd">
<svg version="1.1" id="Layer_1" xmlns="http://www.w3.org/2000/svg" xmlns:xlink="http://www.w3.org/1999/xlink" x="0px" y="0px"
	 width="56px" height="50px" viewBox="228 231 56 50" enable-background="new 228 231 56 50" xml:space="preserve">
<g>
	<path fill="#F0EEEE" d="M256,233.069c-12.665,0-22.932,10.266-22.932,22.931c0,12.663,10.267,22.931,22.932,22.931
		c12.664,0,22.932-10.268,22.932-22.932C278.93,243.335,268.664,233.069,256,233.069z M262.884,243.968
		c0-0.657,0.533-1.19,1.191-1.19c0.657,0,1.19,0.533,1.19,1.19v2.997c0,0.657-0.533,1.19-1.19,1.19c-0.658,0-1.191-0.533-1.191-1.19
		V243.968z M246.795,243.962c0-0.658,0.533-1.191,1.191-1.191s1.191,0.533,1.191,1.191v2.997c0,0.658-0.533,1.191-1.191,1.191
		s-1.191-0.533-1.191-1.191V243.962z M269.5,269.228h-27v-23.526h2.856v1.214c0,1.451,1.18,2.63,2.63,2.63s2.63-1.18,2.63-2.63
		v-1.214h10.829v1.22c0,1.451,1.18,2.63,2.63,2.63s2.63-1.18,2.63-2.63v-1.22h2.795V269.228z"/>
	<path fill="#F0EEEE" d="M245.121,266.606h21.758v-14.579h-21.758V266.606z M257.568,256.686c1.416,0.038,2.406-0.368,2.614-1.756
		h1.675v9.125h-2.061v-5.748h-2.229V256.686z M252.479,260.041v-1.54c0.904,0.079,1.887-0.052,1.887-0.959
		c0-0.719-0.582-1.046-1.123-1.046c-0.907,0-1.251,0.667-1.234,1.583h-1.979c0.082-2.213,1.423-3.326,3.2-3.326
		c1.527,0,3.106,0.968,3.106,2.588c0,0.838-0.37,1.491-1.006,1.809c0.833,0.32,1.336,1.075,1.336,2.04
		c0,1.896-1.566,3.03-3.423,3.031c-2.078,0-3.458-1.201-3.421-3.479h1.965c0.036,1.008,0.44,1.747,1.431,1.747
		c0.653,0,1.312-0.39,1.312-1.262C254.53,260.123,253.764,260.041,252.479,260.041z"/>
</g>
<path fill="#F0EEEE" d="M228,231v50h56v-50H228z M255.869,281c-13.801,0-25-11.2-25-25s11.199-25,25-25c13.799,0,25,11.2,25,25
	S269.668,281,255.869,281z"/>
</svg>
