<?xml version="1.0" encoding="utf-8"?>
<!-- Generator: Adobe Illustrator 16.0.0, SVG Export Plug-In . SVG Version: 6.00 Build 0)  -->
<!DOCTYPE svg PUBLIC "-//W3C//DTD SVG 1.1//EN" "http://www.w3.org/Graphics/SVG/1.1/DTD/svg11.dtd">
<svg version="1.1" id="Layer_1" xmlns="http://www.w3.org/2000/svg" xmlns:xlink="http://www.w3.org/1999/xlink" x="0px" y="0px"
	 width="56px" height="50px" viewBox="0 0 56 50" enable-background="new 0 0 56 50" xml:space="preserve">
<path fill="#F0EEEE" d="M0,0v50h56V0H0z M27.869,50c-13.8,0-25-11.2-25-25s11.2-25,25-25c13.799,0,25,11.2,25,25
	S41.668,50,27.869,50z"/>
<g>
	<path fill="#F0EEEE" d="M50.931,25c0-12.664-10.268-22.931-22.932-22.931c-12.664,0-22.931,10.267-22.931,22.93
		c0,12.665,10.267,22.932,22.932,22.932C40.663,47.93,50.929,37.664,50.931,25z M45.916,14.346c0,3.639,0,7.009,0,10.65
		c-1.479-1.416-2.732-2.613-4.146-3.965c-3.816,3.896-7.543,7.697-11.652,11.89c-2.446-2.673-4.734-5.173-7.391-8.077
		c-3.804,3.895-7.351,7.525-10.937,11.197c-0.764-0.729-1.531-1.461-2.227-2.127c4.593-4.554,9.078-9.002,13.835-13.716
		c2.06,2.296,4.293,4.786,6.285,7.01c3.291-3.219,6.248-6.109,9.689-9.475c-1.206-0.989-2.538-2.081-4.131-3.389
		C39.063,14.345,42.454,14.345,45.916,14.346z"/>
</g>
</svg>
