<?xml version="1.0" encoding="utf-8"?>
<!-- Generator: Adobe Illustrator 16.0.0, SVG Export Plug-In . SVG Version: 6.00 Build 0)  -->
<!DOCTYPE svg PUBLIC "-//W3C//DTD SVG 1.1//EN" "http://www.w3.org/Graphics/SVG/1.1/DTD/svg11.dtd">
<svg version="1.1" id="Layer_1" xmlns="http://www.w3.org/2000/svg" xmlns:xlink="http://www.w3.org/1999/xlink" x="0px" y="0px"
	 width="56px" height="50px" viewBox="0 0 56 50" enable-background="new 0 0 56 50" xml:space="preserve">
<path fill="#F0EEEE" d="M0,0v50h56V0H0z M27.869,50c-13.8,0-25-11.2-25-25s11.2-25,25-25c13.799,0,25,11.2,25,25
	S41.668,50,27.869,50z"/>
<g>
	<path fill="#F0EEEE" d="M28,2.07c-12.665,0-22.931,10.266-22.931,22.931c0,12.663,10.266,22.93,22.931,22.93
		c12.664,0,22.932-10.267,22.932-22.931C50.93,12.336,40.664,2.07,28,2.07z M35.243,35.655c1.593-1.308,2.925-2.399,4.131-3.389
		c-3.441-3.365-6.398-6.256-9.689-9.474c-1.991,2.223-4.226,4.714-6.285,7.009c-4.756-4.714-9.242-9.162-13.835-13.716
		c0.695-0.665,1.463-1.398,2.227-2.126c3.585,3.672,7.133,7.303,10.936,11.197c2.657-2.904,4.946-5.405,7.392-8.077
		c4.109,4.193,7.836,7.994,11.652,11.89c1.413-1.352,2.666-2.549,4.146-3.965c0,3.642,0,7.012,0,10.651
		C42.455,35.655,39.063,35.655,35.243,35.655z"/>
</g>
</svg>
