<?xml version="1.0" encoding="utf-8"?>
<!-- Generator: Adobe Illustrator 16.0.0, SVG Export Plug-In . SVG Version: 6.00 Build 0)  -->
<!DOCTYPE svg PUBLIC "-//W3C//DTD SVG 1.1//EN" "http://www.w3.org/Graphics/SVG/1.1/DTD/svg11.dtd">
<svg version="1.1" id="Layer_1" xmlns="http://www.w3.org/2000/svg" xmlns:xlink="http://www.w3.org/1999/xlink" x="0px" y="0px"
	 width="56px" height="50px" viewBox="228 231 56 50" enable-background="new 228 231 56 50" xml:space="preserve">
<g>
	<circle fill="#EFEDED" cx="265.018" cy="246.892" r="1.496"/>
	<path fill="#EFEDED" d="M256,233.069c-12.665,0-22.931,10.267-22.931,22.93c0,12.666,10.267,22.931,22.931,22.931
		c12.664,0,22.93-10.266,22.932-22.93C278.932,243.335,268.664,233.069,256,233.069z M269.188,265.189l-7.247,3.989l-6.133-3.989
		l-6.006,3.989l-6.99-3.989v-18.841l6.99,3.719l6.006-3.12l3.323,1.69c0.333,1.266,1.019,2.191,1.678,3.021l-4.542-2.298v5.053
		h-0.917v-5.053l-5.109,2.65v4.82h-0.962v-4.864l-4.542-2.429v14.528l4.542,2.605v-5.775h0.962v5.671l5.109-3.388v-4.828h0.917
		v4.828l5.237,3.388v-5.671h0.963v5.775l4.799-2.605v-9.184c0.446-1.324,1.106-2.152,1.797-3.017
		c0.042-0.053,0.084-0.106,0.127-0.159V265.189z M261.294,258.083c0.28,0.12,0.577,0.182,0.883,0.182
		c0.25,0,0.497-0.042,0.733-0.123l0.436,1.25c-0.377,0.132-0.771,0.197-1.169,0.197c-0.487,0-0.962-0.098-1.408-0.291
		L261.294,258.083z M260.302,257.533l-0.655,1.151l-1.865-1.063l0.654-1.15L260.302,257.533z M257.305,255.856l-0.511,1.223
		c-0.273-0.114-0.562-0.173-0.858-0.173c-0.259,0-0.514,0.046-0.758,0.134l-0.451-1.246c0.389-0.14,0.795-0.211,1.209-0.212
		C256.408,255.583,256.868,255.675,257.305,255.856z M254.232,257.559l-1.842,1.104l-0.68-1.137l1.841-1.103L254.232,257.559z
		 M251.251,259.298c-0.43,0.177-0.884,0.267-1.35,0.267c-0.42,0-0.834-0.074-1.228-0.22l0.458-1.242
		c0.248,0.092,0.507,0.138,0.771,0.138c0.292,0,0.577-0.056,0.847-0.167L251.251,259.298z M248.065,257.983
		c0,0.602-0.487,1.088-1.088,1.088s-1.088-0.486-1.088-1.088c0-0.601,0.487-1.089,1.088-1.089S248.065,257.383,248.065,257.983z
		 M263.941,257.983c0-0.601,0.487-1.089,1.089-1.089s1.089,0.488,1.089,1.089c0,0.602-0.487,1.088-1.089,1.088
		S263.941,258.585,263.941,257.983z M265.018,255.99c-0.892-5.209-4.172-5.572-4.172-8.997c0-2.304,1.868-4.171,4.172-4.171
		c2.303,0,4.171,1.867,4.171,4.171C269.188,250.418,265.907,250.78,265.018,255.99z"/>
</g>
<path fill="#EFEDED" d="M228,231v50h56v-50H228z M255.869,281c-13.8,0-25-11.2-25-25s11.2-25,25-25c13.799,0,25,11.2,25,25
	S269.668,281,255.869,281z"/>
</svg>
