<?xml version="1.0" encoding="utf-8"?>
<!-- Generator: Adobe Illustrator 16.0.0, SVG Export Plug-In . SVG Version: 6.00 Build 0)  -->
<!DOCTYPE svg PUBLIC "-//W3C//DTD SVG 1.1//EN" "http://www.w3.org/Graphics/SVG/1.1/DTD/svg11.dtd">
<svg version="1.1"
	 id="Layer_1" xmlns:sodipodi="http://sodipodi.sourceforge.net/DTD/sodipodi-0.dtd" xmlns:dc="http://purl.org/dc/elements/1.1/" xmlns:inkscape="http://www.inkscape.org/namespaces/inkscape" xmlns:cc="http://creativecommons.org/ns#" xmlns:svg="http://www.w3.org/2000/svg" xmlns:rdf="http://www.w3.org/1999/02/22-rdf-syntax-ns#" inkscape:version="0.48.4 r9939" sodipodi:docname="icon_3973.svg"
	 xmlns="http://www.w3.org/2000/svg" xmlns:xlink="http://www.w3.org/1999/xlink" x="0px" y="0px" width="56px" height="50px"
	 viewBox="0 0 56 50" enable-background="new 0 0 56 50" xml:space="preserve">
<sodipodi:namedview  borderopacity="1" inkscape:cy="33.246456" inkscape:cx="7.9736334" id="namedview3067" showgrid="false" guidetolerance="10" inkscape:zoom="8.6691291" pagecolor="#ffffff" objecttolerance="10" bordercolor="#666666" gridtolerance="10" inkscape:window-height="961" inkscape:window-x="0" inkscape:window-y="0" inkscape:window-maximized="0" inkscape:current-layer="Layer_1" inkscape:window-width="1628" inkscape:pageopacity="0" inkscape:pageshadow="2">
	</sodipodi:namedview>
<g>
	<path fill="#F0EEEE" d="M24.643,11.507c0.812,0.32,1.482,1.243,1.482,1.243c0.299-1.114-1.935-3.107-1.935-3.107
		c-1.196,1.839-0.815,3.591-0.815,3.592C23.399,11.905,24.643,11.507,24.643,11.507z"/>
	<path fill="#F0EEEE" d="M33.843,15.937c2.282-0.812,2.81-4.894,2.81-4.894c-4.803,0.336-5.809,2.77-5.81,2.769
		c1.361-0.662,3.581-0.637,3.581-0.637C34.506,14.197,33.843,15.937,33.843,15.937z"/>
	<path fill="#F0EEEE" d="M21.657,19c-1.636-3.862-7.417-4.253-7.417-4.253c0.159,6.247,3.604,7.909,3.605,7.91
		c-1.219-2.063-0.657-4.678-0.679-4.678C19.213,17.591,21.657,19,21.657,19z"/>
	<path fill="#F0EEEE" d="M30.625,25.968c4.093-2.063,7.031-0.969,7.031-0.969c0.088,2.903-1.781,5.969-1.781,5.969
		c5.188-1.187,6.719-9.906,6.719-9.906c-0.343-0.004-0.509-0.086-0.828-0.078C32.341,21.747,30.625,25.969,30.625,25.968z"/>
	<path fill="#F0EEEE" d="M28,2.069C15.335,2.069,5.069,12.335,5.069,25c0,12.663,10.266,22.931,22.931,22.931
		c12.664,0,22.932-10.268,22.932-22.932C50.93,12.335,40.664,2.069,28,2.069z M38.094,9.5c0,0-0.469,9.55-7.125,9.375
		c0,0,2.252-2.208,2.063-4.531c0,0-1.914-0.586-4.47,2.031C28.563,16.375,27.179,10.262,38.094,9.5z M23.719,7.844
		c0,0,5.715,3.992,3.031,8.031c0,0-0.524-2.248-2.031-3.031c0,0-1.095,0.974-0.469,3.563C24.25,16.406,19.965,14.871,23.719,7.844z
		 M12.469,12.969c0,0,12.364,0.812,12,9.438c0,0-2.827-2.947-5.844-2.75c0,0-0.779,2.478,2.563,5.844
		C21.188,25.5,13.231,27.135,12.469,12.969z M29.218,41.971h-3.281c0,0-2.186-5.876-1.219-12.813c0,0-1.066-4.059-3.375-6.438
		c0,0,2.899,1.971,3.75,4.47c0.415-1.841,1.065-3.72,2.063-5.563c0-0.001-1.275-1.703-1.625-6.251c0,0,0.796,3.834,2.281,5.094
		c0,0-0.035,0.09-0.094,0.188c0.849-1.381,1.896-2.749,3.188-4.031c0,0-6.108,7.079-4.844,16.688c-0.018-0.25,3.6-0.533,7.094-4.656
		c0,0-3.174,4.57-6.813,6.25C26.823,37.159,27.735,39.534,29.218,41.971z M32.125,33.313c0,0,3.875-3.263,3.875-7
		c0,0-2.982-1.132-7.406,2.719c0,0-1.301-9.353,14.563-9.75c0.512-0.013,1.046-0.006,1.594,0
		C44.75,19.281,42.738,34.459,32.125,33.313z"/>
</g>
<path fill="#F0EEEE" d="M0,0v50h56V0H0z M27.869,50c-13.8,0-25-11.2-25-25s11.2-25,25-25c13.799,0,25,11.2,25,25
	S41.668,50,27.869,50z"/>
</svg>
