<?xml version="1.0" encoding="utf-8"?>
<!-- Generator: Adobe Illustrator 16.0.0, SVG Export Plug-In . SVG Version: 6.00 Build 0)  -->
<!DOCTYPE svg PUBLIC "-//W3C//DTD SVG 1.1//EN" "http://www.w3.org/Graphics/SVG/1.1/DTD/svg11.dtd">
<svg version="1.1" id="Layer_1" xmlns="http://www.w3.org/2000/svg" xmlns:xlink="http://www.w3.org/1999/xlink" x="0px" y="0px"
	 width="56px" height="50px" viewBox="0 0 56 50" enable-background="new 0 0 56 50" xml:space="preserve">
<path fill="#F0EEEE" d="M27.994,2.069c-12.664,0-22.931,10.267-22.931,22.93c0,12.665,10.267,22.932,22.932,22.932
	C40.658,47.93,50.924,37.664,50.926,25C50.926,12.336,40.658,2.069,27.994,2.069z M19.033,30.188
	c-1.837-1.826-3.455-3.436-5.14-5.111c1.08,0,2.189,0,3.422,0c0.474-4.933,2.722-8.484,7.443-10.109
	c3.047-1.049,6.375-0.561,8.602,1.172c-0.774,1.275-1.593,1.816-3.295,1.293c-4.928-1.515-9.74,2.136-9.932,7.505
	c1.16,0,2.322,0,3.485,0c0.077,0.136,0.155,0.271,0.232,0.407c-0.823,0.768-1.669,1.512-2.462,2.31
	C20.578,28.47,19.82,29.338,19.033,30.188z M38.644,24.905c-0.398,4.7-2.477,8.111-6.742,9.868c-3.171,1.306-6.301,1.014-9.39-0.794
	c0.924-1.484,1.831-1.906,3.486-1.41c4.929,1.477,9.856-2.343,9.816-7.524c-1.133,0-2.272,0-3.19,0
	c1.57-1.578,3.195-3.21,4.771-4.793c1.329,1.374,2.918,3.017,4.501,4.654C40.997,24.905,39.856,24.905,38.644,24.905z"/>
<path fill="#F0EEEE" d="M-0.005-0.006v50h56v-50H-0.005z M27.863,49.994c-13.8,0-25-11.2-25-25s11.2-25,25-25
	c13.799,0,25,11.2,25,25S41.662,49.994,27.863,49.994z"/>
</svg>
