<?xml version="1.0" encoding="utf-8"?>
<!-- Generator: Adobe Illustrator 16.0.0, SVG Export Plug-In . SVG Version: 6.00 Build 0)  -->
<!DOCTYPE svg PUBLIC "-//W3C//DTD SVG 1.1//EN" "http://www.w3.org/Graphics/SVG/1.1/DTD/svg11.dtd">
<svg version="1.1" id="Layer_1" xmlns="http://www.w3.org/2000/svg" xmlns:xlink="http://www.w3.org/1999/xlink" x="0px" y="0px"
	 width="56px" height="50px" viewBox="228 231 56 50" enable-background="new 228 231 56 50" xml:space="preserve">
<g>
	<path fill="#EFEDED" d="M257.095,244.662v4.806c1.039-0.045,2.048-0.154,3.008-0.324
		C259.568,247.552,258.569,245.462,257.095,244.662z"/>
	<path fill="#EFEDED" d="M249.239,250.757c-0.934-0.276-1.861-0.626-2.741-1.072c-1.014,1.522-1.671,3.301-1.854,5.219h4.099
		C248.797,253.464,248.966,252.068,249.239,250.757z"/>
	<path fill="#EFEDED" d="M251.406,260.769c1.118-0.206,2.293-0.336,3.499-0.386v-3.287h-3.963
		C251.001,258.378,251.159,259.614,251.406,260.769z"/>
	<path fill="#EFEDED" d="M264.087,247.953c-0.899-0.903-1.948-1.657-3.107-2.22c0.523,0.909,0.935,1.895,1.261,2.906
		C262.896,248.442,263.514,248.213,264.087,247.953z"/>
	<path fill="#EFEDED" d="M251.934,249.144c0.949,0.168,1.945,0.276,2.971,0.322v-4.784
		C253.454,245.496,252.466,247.56,251.934,249.144z"/>
	<path fill="#EFEDED" d="M254.905,267.173v-4.599c-1.004,0.045-1.98,0.15-2.911,0.313
		C252.527,264.412,253.496,266.382,254.905,267.173z"/>
	<path fill="#EFEDED" d="M248.75,257.096h-4.105c0.184,1.93,0.849,3.721,1.874,5.249c0.887-0.445,1.803-0.792,2.759-1.072
		C248.991,259.955,248.812,258.548,248.75,257.096z"/>
	<path fill="#EFEDED" d="M247.953,264.086c0.934,0.93,2.028,1.698,3.237,2.262c-0.561-0.926-0.996-1.938-1.338-2.963
		C249.177,263.585,248.542,263.819,247.953,264.086z"/>
	<path fill="#EFEDED" d="M250.936,254.905h3.969v-3.247c-1.219-0.05-2.407-0.183-3.537-0.393
		C251.134,252.411,250.986,253.636,250.936,254.905z"/>
	<path fill="#EFEDED" d="M262.798,250.757c0.272,1.311,0.441,2.707,0.495,4.147h4.063c-0.183-1.912-0.837-3.686-1.845-5.205
		C264.646,250.136,263.728,250.482,262.798,250.757z"/>
	<path fill="#EFEDED" d="M251.071,245.708c-1.174,0.563-2.237,1.322-3.147,2.233c0.581,0.265,1.207,0.498,1.872,0.698
		C250.124,247.623,250.536,246.633,251.071,245.708z"/>
	<path fill="#EFEDED" d="M262.76,261.272c0.939,0.275,1.844,0.615,2.732,1.059c1.02-1.526,1.681-3.312,1.864-5.235h-4.069
		C263.225,258.548,263.045,259.954,262.76,261.272z"/>
	<path fill="#EFEDED" d="M260.668,251.265c-1.141,0.212-2.341,0.346-3.573,0.395v3.245h4.006
		C261.05,253.636,260.902,252.412,260.668,251.265z"/>
	<path fill="#EFEDED" d="M256,233.07c-12.665,0-22.931,10.267-22.931,22.929c0,12.666,10.267,22.932,22.931,22.932
		s22.93-10.266,22.932-22.93C278.932,243.337,268.664,233.07,256,233.07z M256,270.289c-7.691,0-14.289-6.157-14.289-14.289
		c0-8.084,6.558-14.289,14.289-14.289c7.785,0,14.289,6.271,14.289,14.289C270.289,264.074,263.738,270.289,256,270.289z"/>
	<path fill="#EFEDED" d="M257.095,267.192c1.429-0.776,2.411-2.77,2.948-4.307c-0.942-0.163-1.931-0.269-2.948-0.313V267.192z"/>
	<path fill="#EFEDED" d="M260.86,266.323c1.194-0.563,2.275-1.326,3.199-2.248c-0.582-0.263-1.21-0.493-1.875-0.69
		C261.846,264.4,261.417,265.399,260.86,266.323z"/>
	<path fill="#EFEDED" d="M257.095,257.096v3.285c1.219,0.049,2.406,0.18,3.535,0.388c0.247-1.154,0.405-2.391,0.465-3.673H257.095z"
		/>
</g>
<path fill="#EFEDED" d="M228,231v50h56v-50H228z M255.869,281c-13.8,0-25-11.2-25-25s11.2-25,25-25c13.799,0,25,11.2,25,25
	S269.668,281,255.869,281z"/>
</svg>
