<?xml version="1.0" encoding="iso-8859-1"?>
<!-- Generator: Adobe Illustrator 16.0.2, SVG Export Plug-In . SVG Version: 6.00 Build 0)  -->
<!DOCTYPE svg PUBLIC "-//W3C//DTD SVG 1.1//EN" "http://www.w3.org/Graphics/SVG/1.1/DTD/svg11.dtd">
<svg version="1.1" id="Layer_70" xmlns="http://www.w3.org/2000/svg" xmlns:xlink="http://www.w3.org/1999/xlink" x="0px" y="0px"
	 width="40px" height="40px" viewBox="0 0 40 40" style="enable-background:new 0 0 40 40;" xml:space="preserve">
<g>
	<g>
		<path d="M29.738,28.404V22h-1.333v6.404H22v1.333h6.405v6.405h1.333v-6.405h6.405v-1.333H29.738z M2.551,27.714v-1.989
			c0-0.65,0.328-1.199,0.901-1.506l10.155-5.478c0.742,0.256,1.528,0.395,2.344,0.395c0.831,0,1.631-0.144,2.384-0.409l7.345,3.994
			l0.637-1.171l-6.505-3.537c2.446-1.523,4.106-4.443,4.106-7.792c0-4.915-3.574-8.914-7.967-8.914
			c-4.394,0-7.968,3.999-7.968,8.914c0,3.361,1.672,6.291,4.133,7.81l-9.295,5.013c-1.004,0.539-1.604,1.541-1.604,2.681v1.989
			c0,1.679,1.366,3.044,3.046,3.044H19v-1.333H4.263C3.319,29.425,2.551,28.657,2.551,27.714z M9.316,10.221
			c0-4.18,2.976-7.58,6.635-7.58c3.658,0,6.634,3.4,6.634,7.58c0,4.181-2.976,7.582-6.634,7.582
			C12.292,17.803,9.316,14.402,9.316,10.221z"/>
	</g>
</g>
</svg>
