<?xml version="1.0" encoding="iso-8859-1"?>
<!-- Generator: Adobe Illustrator 16.0.2, SVG Export Plug-In . SVG Version: 6.00 Build 0)  -->
<!DOCTYPE svg PUBLIC "-//W3C//DTD SVG 1.1//EN" "http://www.w3.org/Graphics/SVG/1.1/DTD/svg11.dtd">
<svg version="1.1" id="Layer_80" xmlns="http://www.w3.org/2000/svg" xmlns:xlink="http://www.w3.org/1999/xlink" x="0px" y="0px"
	 width="40px" height="40px" viewBox="0 0 40 40" style="enable-background:new 0 0 40 40;" xml:space="preserve">
<g>
	<g>
		<path d="M16.98,7.667h5.998V6.333H16.98V7.667z M34.775,8.335h-8.131V4.324c0-1.095-0.891-1.987-1.986-1.987h-9.357
			c-1.096,0-1.987,0.892-1.987,1.987v4.011H5.182c-1.581,0-2.866,1.285-2.866,2.866v20.591c0,1.581,1.286,2.866,2.866,2.866h29.593
			c1.581,0,2.867-1.285,2.867-2.866V11.201C37.642,9.621,36.356,8.335,34.775,8.335z M36.309,31.792
			c0,0.845-0.688,1.533-1.533,1.533H5.182c-0.846,0-1.533-0.688-1.533-1.533V20.667h12.664v5.998h7.332v-5.998h12.664V31.792z
			 M36.309,19.333H22.311v5.998h-4.665v-5.998H3.649v-8.132c0-0.845,0.688-1.533,1.533-1.533h9.465V4.324
			c0-0.36,0.293-0.653,0.654-0.653h9.357c0.36,0,0.652,0.293,0.652,0.653v5.344h9.465c0.846,0,1.533,0.688,1.533,1.533V19.333z"/>
	</g>
</g>
</svg>
