<?xml version="1.0" encoding="iso-8859-1"?>
<!-- Generator: Adobe Illustrator 16.0.2, SVG Export Plug-In . SVG Version: 6.00 Build 0)  -->
<!DOCTYPE svg PUBLIC "-//W3C//DTD SVG 1.1//EN" "http://www.w3.org/Graphics/SVG/1.1/DTD/svg11.dtd">
<svg version="1.1" id="Layer_57" xmlns="http://www.w3.org/2000/svg" xmlns:xlink="http://www.w3.org/1999/xlink" x="0px" y="0px"
	 width="40px" height="40px" viewBox="0 0 40 40" style="enable-background:new 0 0 40 40;" xml:space="preserve">
<g>
	<g>
		<path d="M16,16.333c-0.368,0-0.667,0.298-0.667,0.667v2c0,0.368,0.298,0.667,0.667,0.667s0.667-0.298,0.667-0.667v-2
			C16.667,16.632,16.368,16.333,16,16.333z M31.441,1.333H8.526c-1.216,0-2.206,0.982-2.206,2.189V37h1.333v-2.333h24.661V37h1.333
			V3.522C33.648,2.315,32.658,1.333,31.441,1.333z M7.654,33.333V3.522c0-0.472,0.392-0.856,0.873-0.856H19.32l0.013,30.667H7.654z
			 M32.314,33.333H20.667L20.653,2.667h10.789c0.481,0,0.873,0.384,0.873,0.856V33.333z M24,16.333
			c-0.368,0-0.667,0.298-0.667,0.667v2c0,0.368,0.298,0.667,0.667,0.667s0.667-0.298,0.667-0.667v-2
			C24.667,16.632,24.368,16.333,24,16.333z"/>
	</g>
</g>
</svg>
