<?xml version="1.0" encoding="iso-8859-1"?>
<!-- Generator: Adobe Illustrator 16.0.2, SVG Export Plug-In . SVG Version: 6.00 Build 0)  -->
<!DOCTYPE svg PUBLIC "-//W3C//DTD SVG 1.1//EN" "http://www.w3.org/Graphics/SVG/1.1/DTD/svg11.dtd">
<svg version="1.1" id="Layer_57" xmlns="http://www.w3.org/2000/svg" xmlns:xlink="http://www.w3.org/1999/xlink" x="0px" y="0px"
	 width="40px" height="40px" viewBox="0 0 40 40" style="enable-background:new 0 0 40 40;" xml:space="preserve">
<g>
	<g>
		<path d="M12.501,35.337c-0.644,0-1.167,0.524-1.167,1.167c0,0.643,0.523,1.167,1.167,1.167c0.643,0,1.166-0.523,1.166-1.167
			C13.667,35.861,13.144,35.337,12.501,35.337z M12.333,36.505c0-0.092,0.076-0.167,0.168-0.167s0.166,0.075,0.166,0.167
			C12.667,36.688,12.333,36.687,12.333,36.505z M7.999,13.333c-0.368,0-0.666,0.298-0.666,0.667v7c0,0.368,0.298,0.667,0.666,0.667
			c0.369,0,0.667-0.298,0.667-0.667v-7C8.666,13.631,8.368,13.333,7.999,13.333z M30,13.333c-0.368,0-0.667,0.298-0.667,0.667v7
			c0,0.368,0.299,0.667,0.667,0.667s0.667-0.298,0.667-0.667v-7C30.667,13.631,30.368,13.333,30,13.333z M18.997,35.337
			c-0.644,0-1.167,0.523-1.167,1.167s0.523,1.167,1.167,1.167s1.167-0.523,1.167-1.167S19.641,35.337,18.997,35.337z M18.831,36.504
			c0-0.092,0.074-0.167,0.166-0.167s0.166,0.075,0.166,0.167C19.163,36.688,18.831,36.688,18.831,36.504z M25.494,35.337
			c-0.644,0-1.167,0.523-1.167,1.167s0.523,1.167,1.167,1.167s1.166-0.523,1.166-1.167S26.138,35.337,25.494,35.337z M25.327,36.504
			c0-0.092,0.074-0.167,0.167-0.167c0.092,0,0.167,0.075,0.167,0.167C25.661,36.688,25.327,36.687,25.327,36.504z M19.667,26h-1.334
			v6.334h-7.334v1.333H27v-1.333h-7.333V26z M25.448,18.335H12.533c-1.217,0-2.207,0.99-2.207,2.206v1.92
			c0,1.216,0.99,2.207,2.207,2.207h12.915c1.217,0,2.207-0.99,2.207-2.207v-1.92C27.655,19.325,26.665,18.335,25.448,18.335z
			 M26.322,22.462c0,0.481-0.392,0.873-0.874,0.873H12.533c-0.481,0-0.874-0.392-0.874-0.873v-1.92c0-0.481,0.393-0.873,0.874-0.873
			h12.915c0.482,0,0.874,0.392,0.874,0.873V22.462z M24.35,2.332H13.633c-1.823,0-3.307,1.484-3.307,3.308v8.819
			c0,1.217,0.99,2.208,2.207,2.208h12.915c1.217,0,2.207-0.99,2.207-2.208V5.64C27.655,3.816,26.173,2.332,24.35,2.332z
			 M26.322,14.459c0,0.482-0.392,0.875-0.874,0.875H12.533c-0.481,0-0.874-0.393-0.874-0.875V5.64c0-1.088,0.886-1.974,1.974-1.974
			H24.35c1.088,0,1.973,0.886,1.973,1.974V14.459z"/>
	</g>
</g>
</svg>
