<?xml version="1.0" encoding="iso-8859-1"?>
<!-- Generator: Adobe Illustrator 16.0.2, SVG Export Plug-In . SVG Version: 6.00 Build 0)  -->
<!DOCTYPE svg PUBLIC "-//W3C//DTD SVG 1.1//EN" "http://www.w3.org/Graphics/SVG/1.1/DTD/svg11.dtd">
<svg version="1.1" id="Layer_66" xmlns="http://www.w3.org/2000/svg" xmlns:xlink="http://www.w3.org/1999/xlink" x="0px" y="0px"
	 width="40px" height="40px" viewBox="0 0 40 40" style="enable-background:new 0 0 40 40;" xml:space="preserve">
<g>
	<g>
		<path d="M17.093,18.38c0,0.709,0.577,1.287,1.287,1.287s1.287-0.577,1.287-1.287c0-0.708-0.577-1.285-1.287-1.285
			S17.093,17.671,17.093,18.38z M13.71,27.914c-0.759,0-1.376,0.618-1.376,1.376s0.617,1.376,1.376,1.376
			c0.759,0,1.376-0.617,1.376-1.376S14.469,27.914,13.71,27.914z M13.643,4.3c0-0.36,0.293-0.653,0.653-0.653h11.358
			c0.36,0,0.653,0.293,0.653,0.653V8h1.333V4.3c0-1.095-0.891-1.986-1.986-1.986H14.296c-1.095,0-1.986,0.891-1.986,1.986V8h1.333
			V4.3z M36.912,28.73L25.641,12.765V8h-1.333v5.188l5.908,8.368l-0.203-0.09c-0.173-0.078-0.371-0.077-0.545,0l-4.575,2.054
			l-4.574-1.995c-0.169-0.073-0.362-0.074-0.532,0l-4.6,1.997l-4.576-1.996c-0.17-0.074-0.363-0.074-0.533,0l-0.464,0.203
			l6.029-8.54V8h-1.333v4.765L3.038,28.729c-0.488,0.691-0.726,1.44-0.726,2.287v3.75c0,1.581,1.286,2.866,2.866,2.866h29.593
			c1.581,0,2.866-1.286,2.866-2.866v-3.75C37.638,30.168,37.4,29.42,36.912,28.73z M36.304,34.767c0,0.846-0.688,1.533-1.533,1.533
			H5.178c-0.846,0-1.533-0.688-1.533-1.533v-3.75c0-0.57,0.153-1.052,0.482-1.518l4.104-5.813l0.036,0.083l2.077-0.906l4.575,1.996
			c0.085,0.037,0.176,0.056,0.267,0.056c0.09,0,0.181-0.018,0.266-0.055l4.6-1.997l4.579,1.997c0.172,0.075,0.368,0.074,0.54-0.003
			l4.572-2.052l1.979,0.883l4.103,5.812c0.329,0.465,0.481,0.947,0.481,1.518V34.767z M25.789,28.333
			c-0.803,0-1.455,0.652-1.455,1.455s0.652,1.456,1.455,1.456s1.456-0.653,1.456-1.456S26.591,28.333,25.789,28.333z M20.351,24.999
			c-0.919,0-1.667,0.748-1.667,1.667c0,0.92,0.748,1.668,1.667,1.668s1.668-0.748,1.668-1.668
			C22.019,25.747,21.271,24.999,20.351,24.999z M20.351,27c-0.185,0-0.334-0.15-0.334-0.335c0-0.184,0.149-0.333,0.334-0.333
			s0.334,0.149,0.334,0.333C20.686,26.85,20.536,27,20.351,27z"/>
	</g>
</g>
</svg>
