<?xml version="1.0" encoding="iso-8859-1"?>
<!-- Generator: Adobe Illustrator 16.0.2, SVG Export Plug-In . SVG Version: 6.00 Build 0)  -->
<!DOCTYPE svg PUBLIC "-//W3C//DTD SVG 1.1//EN" "http://www.w3.org/Graphics/SVG/1.1/DTD/svg11.dtd">
<svg version="1.1" id="Layer_78" xmlns="http://www.w3.org/2000/svg" xmlns:xlink="http://www.w3.org/1999/xlink" x="0px" y="0px"
	 width="40px" height="40px" viewBox="0 0 40 40" style="enable-background:new 0 0 40 40;" xml:space="preserve">
<g>
	<g>
		<path d="M13.528,29.6l0.942,0.943l4.862-4.862v11.391h1.333V25.68l4.862,4.862l0.942-0.943l-6.472-6.471L13.528,29.6z
			 M33.239,10.891c-0.054-5.255-4.387-9.515-9.707-9.515c-3.668,0-6.942,1.995-8.604,5.161c-0.993-0.892-2.297-1.403-3.648-1.403
			c-3.004,0-5.448,2.444-5.448,5.448c0,0.193,0.011,0.386,0.03,0.579c-2.674,1.026-4.496,3.628-4.496,6.523
			c0,3.85,3.133,6.982,6.983,6.982h2.649v-1.333H8.35c-3.115,0-5.649-2.534-5.649-5.649c0-2.503,1.684-4.736,4.096-5.431l0.6-0.173
			l-0.134-0.61c-0.063-0.292-0.097-0.591-0.097-0.888c0-2.269,1.846-4.114,4.115-4.114c1.313,0,2.516,0.604,3.301,1.657l0.714,0.958
			l0.44-1.11c1.267-3.196,4.327-5.262,7.797-5.262c4.617,0,8.374,3.714,8.374,8.279c0,0.138-0.003,0.274-0.011,0.411l-0.034,0.606
			l0.601,0.09c2.744,0.413,4.814,2.814,4.814,5.586c0,3.115-2.535,5.649-5.65,5.649h-2.627v1.333h2.627
			c3.851,0,6.983-3.132,6.983-6.982C38.609,14.454,36.339,11.632,33.239,10.891z"/>
	</g>
</g>
</svg>
