<?xml version="1.0" encoding="iso-8859-1"?>
<!-- Generator: Adobe Illustrator 16.0.2, SVG Export Plug-In . SVG Version: 6.00 Build 0)  -->
<!DOCTYPE svg PUBLIC "-//W3C//DTD SVG 1.1//EN" "http://www.w3.org/Graphics/SVG/1.1/DTD/svg11.dtd">
<svg version="1.1" id="Layer_59" xmlns="http://www.w3.org/2000/svg" xmlns:xlink="http://www.w3.org/1999/xlink" x="0px" y="0px"
	 width="40px" height="40px" viewBox="0 0 40 40" style="enable-background:new 0 0 40 40;" xml:space="preserve">
<g>
	<g>
		<path d="M12,6.667c0.368,0,0.667-0.298,0.667-0.667V3c0-0.368-0.298-0.667-0.667-0.667c-0.369,0-0.667,0.298-0.667,0.667v3
			C11.333,6.368,11.631,6.667,12,6.667z M18,6.667c0.368,0,0.667-0.298,0.667-0.667V3c0-0.368-0.298-0.667-0.667-0.667
			c-0.369,0-0.667,0.298-0.667,0.667v3C17.333,6.368,17.631,6.667,18,6.667z M35.786,13.346h-3.131v-2.232
			c0-0.974-0.793-1.766-1.767-1.766H5.094c-0.974,0-1.766,0.792-1.766,1.766v14.072c0,1.393,0.499,2.598,1.484,3.582l2.777,2.777
			c1.411,1.412,3.14,2.127,5.137,2.127l10.529,0c1.996,0,3.725-0.715,5.139-2.127l9.421-9.419c0.556-0.556,0.838-1.238,0.838-2.026
			v-3.887C38.652,14.631,37.366,13.346,35.786,13.346z M37.319,20.098c0,0.428-0.146,0.782-0.447,1.083l-9.422,9.419
			c-1.153,1.153-2.564,1.737-4.195,1.737H12.726c-1.63,0-3.042-0.584-4.194-1.736l-2.777-2.777
			c-0.736-0.735-1.094-1.599-1.094-2.639V11.113c0-0.239,0.194-0.433,0.433-0.433h25.795c0.234,0,0.433,0.198,0.433,0.433v3.566
			h4.465c0.846,0,1.533,0.688,1.533,1.532V20.098z M23.999,6.667c0.369,0,0.667-0.298,0.667-0.667V3
			c0-0.368-0.298-0.667-0.667-0.667c-0.368,0-0.666,0.298-0.666,0.667v3C23.333,6.368,23.631,6.667,23.999,6.667z M31.321,22h1.334
			v-4.989h-1.334V22z M32,33.833c-0.368,0-0.667,0.298-0.667,0.667c0,1.011-0.822,1.833-1.833,1.833h-23
			c-1.011,0-1.833-0.822-1.833-1.833c0-0.368-0.298-0.667-0.667-0.667S3.333,34.132,3.333,34.5c0,1.746,1.42,3.167,3.167,3.167h23
			c1.746,0,3.167-1.42,3.167-3.167C32.667,34.132,32.368,33.833,32,33.833z"/>
	</g>
</g>
</svg>
