<?xml version="1.0" encoding="iso-8859-1"?>
<!-- Generator: Adobe Illustrator 16.0.2, SVG Export Plug-In . SVG Version: 6.00 Build 0)  -->
<!DOCTYPE svg PUBLIC "-//W3C//DTD SVG 1.1//EN" "http://www.w3.org/Graphics/SVG/1.1/DTD/svg11.dtd">
<svg version="1.1" id="Layer_55" xmlns="http://www.w3.org/2000/svg" xmlns:xlink="http://www.w3.org/1999/xlink" x="0px" y="0px"
	 width="40px" height="40px" viewBox="0 0 40 40" style="enable-background:new 0 0 40 40;" xml:space="preserve">
<g>
	<g>
		<path d="M8.706,10.493l-1.721,2.298v0.543H2c-0.368,0-0.667,0.298-0.667,0.667S1.632,14.667,2,14.667h4.985v0.568l1.722,2.298
			c0.556,0.739,1.369,1.146,2.293,1.146h5v-1.333h-5c-0.501,0-0.925-0.212-1.226-0.613l-1.455-1.942v-0.548
			C8.349,14.167,8.368,14.086,8.368,14s-0.02-0.167-0.049-0.242v-0.523l1.454-1.942c0.306-0.407,0.718-0.614,1.227-0.614h5V9.345h-5
			C10.076,9.345,9.262,9.752,8.706,10.493z M25.333,17.013h1.334v-6.001h-1.334V17.013z M21.333,17.013h1.334v-6.001h-1.334V17.013z
			 M29.325,17.013h1.334v-6.001h-1.334V17.013z M36.465,6.345H19.547c-1.216,0-2.206,0.99-2.206,2.207v10.922
			c0,1.217,0.99,2.207,2.206,2.207h6.188l0.416,1.667h-0.044c-0.976,0-1.769,0.792-1.769,1.767v0.8c0,0.975,0.793,1.767,1.769,1.767
			h1.128l0.199,0.799c-0.643,0.265-1.096,0.898-1.096,1.635v0.8c0,0.974,0.793,1.766,1.767,1.766h5.926
			c0.694,0,1.312-0.301,1.741-0.849c0.426-0.548,0.568-1.22,0.399-1.892l-2.064-8.26h2.357c1.216,0,2.206-0.99,2.206-2.207V8.552
			C38.671,7.335,37.681,6.345,36.465,6.345z M37.337,19.474c0,0.481-0.391,0.874-0.872,0.874H32.4l2.479,9.917
			c0.069,0.278,0.018,0.523-0.157,0.749c-0.178,0.226-0.403,0.336-0.69,0.336h-5.926c-0.239,0-0.433-0.194-0.433-0.433v-0.8
			c0-0.239,0.193-0.434,0.433-0.434h1.005l-0.834-3.333h-2.169c-0.239,0-0.435-0.195-0.435-0.434v-0.8
			c0-0.239,0.195-0.434,0.435-0.434h1.753l-1.084-4.333h-7.229c-0.481,0-0.872-0.392-0.872-0.874V8.552
			c0-0.481,0.391-0.874,0.872-0.874h16.918c0.481,0,0.872,0.392,0.872,0.874V19.474z M33.333,17.013h1.334v-6.001h-1.334V17.013z"/>
	</g>
</g>
</svg>
