<?xml version="1.0" encoding="iso-8859-1"?>
<!-- Generator: Adobe Illustrator 16.0.2, SVG Export Plug-In . SVG Version: 6.00 Build 0)  -->
<!DOCTYPE svg PUBLIC "-//W3C//DTD SVG 1.1//EN" "http://www.w3.org/Graphics/SVG/1.1/DTD/svg11.dtd">
<svg version="1.1" id="Layer_63" xmlns="http://www.w3.org/2000/svg" xmlns:xlink="http://www.w3.org/1999/xlink" x="0px" y="0px"
	 width="40px" height="40px" viewBox="0 0 40 40" style="enable-background:new 0 0 40 40;" xml:space="preserve">
<path d="M9.769,37.557c-2.576,0-4.665-1.261-5.451-3.292c-1.125-2.917,0.865-6.466,4.438-7.912c1.243-0.501,2.39-0.694,3.566-0.59
	V7.559l22.319-5.374l-0.014,25.039c-0.188,2.477-2.049,4.754-4.743,5.843c-1.015,0.41-2.058,0.618-3.101,0.618
	c-2.576,0-4.664-1.262-5.448-3.293c-1.126-2.915,0.864-6.461,4.438-7.907c1.245-0.503,2.389-0.694,3.534-0.591v-9.567l-11.651,2.887
	l-0.015,15.884c-0.185,2.43-2.102,4.762-4.772,5.843C11.854,37.35,10.812,37.557,9.769,37.557z M11.718,27.07
	c-0.79,0-1.596,0.17-2.463,0.52c-2.901,1.174-4.559,3.954-3.693,6.195c0.582,1.504,2.194,2.439,4.207,2.439
	c0.871,0,1.745-0.175,2.6-0.52c2.212-0.896,3.796-2.772,3.941-4.668l0.013-0.959V14.168l14.318-3.547v12.861l-0.801-0.165
	c-1.182-0.243-2.281-0.117-3.566,0.403c-2.903,1.174-4.56,3.951-3.695,6.19c0.582,1.505,2.193,2.441,4.205,2.44
	c0.859,0,1.758-0.18,2.602-0.521c2.193-0.887,3.765-2.762,3.911-4.667l0.012-0.958V3.877L13.656,8.609V27.35l-0.8-0.163
	C12.47,27.108,12.098,27.07,11.718,27.07z"/>
</svg>
