<?xml version="1.0" encoding="iso-8859-1"?>
<!-- Generator: Adobe Illustrator 16.0.2, SVG Export Plug-In . SVG Version: 6.00 Build 0)  -->
<!DOCTYPE svg PUBLIC "-//W3C//DTD SVG 1.1//EN" "http://www.w3.org/Graphics/SVG/1.1/DTD/svg11.dtd">
<svg version="1.1" id="Layer_77" xmlns="http://www.w3.org/2000/svg" xmlns:xlink="http://www.w3.org/1999/xlink" x="0px" y="0px"
	 width="40px" height="40px" viewBox="0 0 40 40" style="enable-background:new 0 0 40 40;" xml:space="preserve">
<g>
	<g>
		<path d="M30.816,4.333H7.198c-1.58,0-2.865,1.286-2.865,2.867v23.598c0,1.58,1.285,2.865,2.865,2.865h23.618
			c1.581,0,2.868-1.285,2.868-2.865V7.199C33.685,5.619,32.397,4.333,30.816,4.333z M32.351,30.797c0,0.844-0.688,1.532-1.534,1.532
			H7.198c-0.844,0-1.531-0.688-1.531-1.532V7.199c0-0.846,0.688-1.533,1.531-1.533h23.618c0.847,0,1.534,0.688,1.534,1.533V30.797z
			 M19.666,10.996h-1.333V18.4H11v1.333h7.333v7.262h1.333v-7.262H27V18.4h-7.334V10.996z"/>
	</g>
</g>
</svg>
