<?xml version="1.0" encoding="iso-8859-1"?>
<!-- Generator: Adobe Illustrator 16.0.2, SVG Export Plug-In . SVG Version: 6.00 Build 0)  -->
<!DOCTYPE svg PUBLIC "-//W3C//DTD SVG 1.1//EN" "http://www.w3.org/Graphics/SVG/1.1/DTD/svg11.dtd">
<svg version="1.1" id="Layer_78" xmlns="http://www.w3.org/2000/svg" xmlns:xlink="http://www.w3.org/1999/xlink" x="0px" y="0px"
	 width="40px" height="40px" viewBox="0 0 40 40" style="enable-background:new 0 0 40 40;" xml:space="preserve">
<g>
	<g>
		<path d="M34.45,6.326h-9.459V7.66h9.459c0.481,0,0.873,0.392,0.873,0.873v16.791h-9.452c-0.853,0-1.546,0.694-1.546,1.548v4.238
			c0,0.116-0.098,0.214-0.213,0.214h-8.239c-0.116,0-0.213-0.098-0.213-0.214v-4.238c0-0.854-0.694-1.548-1.547-1.548H4.637V8.533
			c0-0.481,0.392-0.873,0.873-0.873h9.459V6.326H5.51c-1.216,0-2.206,0.99-2.206,2.207V35.45c0,1.216,0.99,2.207,2.206,2.207H34.45
			c1.217,0,2.207-0.99,2.207-2.207V8.533C36.656,7.316,35.667,6.326,34.45,6.326z M35.323,35.45c0,0.481-0.392,0.873-0.873,0.873
			H5.51c-0.481,0-0.873-0.392-0.873-0.873v-8.793h9.475c0.116,0,0.213,0.098,0.213,0.214v4.238c0,0.854,0.694,1.547,1.546,1.547
			h8.239c0.853,0,1.547-0.694,1.547-1.547v-4.238c0-0.116,0.097-0.214,0.213-0.214h9.452V35.45z M13.529,16.4L20,22.871l6.471-6.471
			l-0.942-0.943l-4.862,4.862V4h-1.333v16.319l-4.862-4.862L13.529,16.4z"/>
	</g>
</g>
</svg>
