<?xml version="1.0" encoding="iso-8859-1"?>
<!-- Generator: Adobe Illustrator 16.0.2, SVG Export Plug-In . SVG Version: 6.00 Build 0)  -->
<!DOCTYPE svg PUBLIC "-//W3C//DTD SVG 1.1//EN" "http://www.w3.org/Graphics/SVG/1.1/DTD/svg11.dtd">
<svg version="1.1" id="Layer_67" xmlns="http://www.w3.org/2000/svg" xmlns:xlink="http://www.w3.org/1999/xlink" x="0px" y="0px"
	 width="40px" height="40px" viewBox="0 0 40 40" style="enable-background:new 0 0 40 40;" xml:space="preserve">
<g>
	<g>
		<path d="M26.002,10.333H14.005v1.333h11.997V10.333z M30.461,6.324h-7.497l4.021-4.098l-0.952-0.934l-4.938,5.032h-5.131
			l4.021-4.098l-0.951-0.934l-4.939,5.032H9.546c-1.217,0-2.207,0.99-2.207,2.207v27.906c0,1.217,0.99,2.207,2.207,2.207h1.919
			c1.217,0,2.207-0.99,2.207-2.207v-4.79h12.663v4.79c0,1.217,0.99,2.207,2.207,2.207h1.919c1.217,0,2.207-0.99,2.207-2.207V8.531
			C32.668,7.314,31.678,6.324,30.461,6.324z M12.339,36.437c0,0.482-0.393,0.874-0.874,0.874H9.546
			c-0.482,0-0.874-0.392-0.874-0.874v-4.79h3.667V36.437z M31.335,36.437c0,0.482-0.393,0.874-0.874,0.874h-1.919
			c-0.482,0-0.874-0.392-0.874-0.874v-4.79h3.667V36.437z M31.335,30.314H8.672V8.531c0-0.482,0.392-0.874,0.874-0.874h20.915
			c0.481,0,0.874,0.392,0.874,0.874V30.314z M12.982,25.169c-0.688,0-1.249,0.561-1.249,1.249s0.561,1.248,1.249,1.248
			s1.249-0.56,1.249-1.248S13.671,25.169,12.982,25.169z M11.333,22.667h17.334v-8.345H11.333V22.667z M12.667,15.655h14.666v5.678
			H12.667V15.655z M27.048,25.169c-0.688,0-1.247,0.561-1.247,1.249s0.56,1.248,1.247,1.248c0.689,0,1.25-0.56,1.25-1.248
			S27.737,25.169,27.048,25.169z"/>
	</g>
</g>
</svg>
