<?xml version="1.0" encoding="iso-8859-1"?>
<!-- Generator: Adobe Illustrator 17.1.0, SVG Export Plug-In . SVG Version: 6.00 Build 0)  -->
<!DOCTYPE svg PUBLIC "-//W3C//DTD SVG 1.1//EN" "http://www.w3.org/Graphics/SVG/1.1/DTD/svg11.dtd">
<svg version="1.1" id="els_x5F_baby_1_x2C_3pt" xmlns="http://www.w3.org/2000/svg" xmlns:xlink="http://www.w3.org/1999/xlink"
	 x="0px" y="0px" width="40px" height="40px" viewBox="0 0 40 40" style="enable-background:new 0 0 40 40;" xml:space="preserve">
<path d="M26.787,22.633c-1.05,0-1.903,0.846-1.903,1.886c0,1.04,0.853,1.885,1.903,1.885c1.049,0,1.902-0.846,1.902-1.885
	C28.689,23.479,27.836,22.633,26.787,22.633z M26.787,25.071c-0.314,0-0.57-0.248-0.57-0.552c0-0.305,0.256-0.552,0.57-0.552
	c0.314,0,0.569,0.248,0.569,0.552C27.356,24.824,27.101,25.071,26.787,25.071z M13.364,22.633c-1.049,0-1.902,0.846-1.902,1.886
	c0,1.04,0.854,1.885,1.902,1.885c1.049,0,1.903-0.846,1.903-1.885C15.267,23.479,14.413,22.633,13.364,22.633z M13.364,25.071
	c-0.314,0-0.569-0.248-0.569-0.552c0-0.305,0.255-0.552,0.569-0.552c0.314,0,0.57,0.248,0.57,0.552
	C13.934,24.824,13.678,25.071,13.364,25.071z M20,32.333c-1.38,0-2.604-0.83-3.12-2.116l-1.237,0.497
	c0.72,1.794,2.43,2.952,4.357,2.952c1.927,0,3.637-1.159,4.357-2.952l-1.237-0.497C22.604,31.503,21.38,32.333,20,32.333z
	 M33,17.333H11.667v-2.197c0-4.617,3.756-8.372,8.372-8.372c3.781,0,7.105,2.546,8.086,6.192l1.288-0.346
	c-1.137-4.227-4.992-7.179-9.374-7.179c-5.352,0-9.706,4.354-9.706,9.706v2.197H7c-2.021,0-3.667,1.645-3.667,3.667v13
	c0,2.022,1.645,3.667,3.667,3.667h26c2.021,0,3.667-1.645,3.667-3.667V21C36.667,18.978,35.021,17.333,33,17.333z M35.333,34
	c0,1.286-1.047,2.333-2.333,2.333H7c-1.286,0-2.333-1.047-2.333-2.333V21c0-1.286,1.047-2.333,2.333-2.333h26
	c1.286,0,2.333,1.047,2.333,2.333V34z"/>
</svg>
