<?xml version="1.0" encoding="iso-8859-1"?>
<!-- Generator: Adobe Illustrator 16.0.2, SVG Export Plug-In . SVG Version: 6.00 Build 0)  -->
<!DOCTYPE svg PUBLIC "-//W3C//DTD SVG 1.1//EN" "http://www.w3.org/Graphics/SVG/1.1/DTD/svg11.dtd">
<svg version="1.1" id="Layer_77" xmlns="http://www.w3.org/2000/svg" xmlns:xlink="http://www.w3.org/1999/xlink" x="0px" y="0px"
	 width="40px" height="40px" viewBox="0 0 40 40" style="enable-background:new 0 0 40 40;" xml:space="preserve">
<g>
	<g>
		<path d="M27.426,29.701l-4.767-2.551c1.242-0.958,2.059-2.56,2.059-4.369c0-2.926-2.134-5.307-4.757-5.307
			s-4.757,2.381-4.757,5.307c0,1.82,0.826,3.43,2.081,4.386l-4.815,2.534c-0.727,0.392-1.16,1.118-1.16,1.943v0.823
			c0,1.217,0.99,2.207,2.206,2.207h12.867c1.216,0,2.205-0.99,2.205-2.207v-0.823C28.588,30.818,28.153,30.09,27.426,29.701z
			 M16.538,22.781c0-2.191,1.535-3.974,3.423-3.974s3.423,1.783,3.423,3.974c0,1.633-0.853,3.039-2.068,3.65l-0.001-0.001
			l-0.001,0.001c-0.793,0.398-1.787,0.42-2.594,0.053l-0.03-0.056l-0.042,0.022C17.409,25.852,16.538,24.432,16.538,22.781z
			 M27.255,32.467c0,0.482-0.392,0.874-0.872,0.874H13.516c-0.481,0-0.872-0.392-0.872-0.874v-0.823
			c0-0.336,0.163-0.609,0.453-0.766l5.64-2.968c0.798,0.238,1.7,0.233,2.493-0.013l5.566,2.979c0.296,0.159,0.459,0.432,0.459,0.769
			V32.467z M36.434,12.336H31.29L21.226,2.229c-0.34-0.34-0.785-0.522-1.272-0.518c-0.466,0.005-0.903,0.188-1.229,0.516
			L8.616,12.336h-5.1c-1.216,0-2.205,0.99-2.205,2.207v21.917c0,1.217,0.989,2.207,2.205,2.207h32.917
			c1.218,0,2.208-0.99,2.208-2.207V14.543C38.642,13.326,37.651,12.336,36.434,12.336z M19.667,3.168
			c0.08-0.079,0.187-0.124,0.302-0.125c0.096,0.013,0.229,0.044,0.313,0.127l9.128,9.166H10.502L19.667,3.168z M37.308,36.459
			c0,0.482-0.392,0.874-0.874,0.874H3.517c-0.48,0-0.871-0.392-0.871-0.874V14.543c0-0.482,0.391-0.874,0.871-0.874h32.917
			c0.482,0,0.874,0.392,0.874,0.874V36.459z"/>
	</g>
</g>
</svg>
