<?xml version="1.0" encoding="iso-8859-1"?>
<!-- Generator: Adobe Illustrator 16.0.2, SVG Export Plug-In . SVG Version: 6.00 Build 0)  -->
<!DOCTYPE svg PUBLIC "-//W3C//DTD SVG 1.1//EN" "http://www.w3.org/Graphics/SVG/1.1/DTD/svg11.dtd">
<svg version="1.1" id="Layer_58" xmlns="http://www.w3.org/2000/svg" xmlns:xlink="http://www.w3.org/1999/xlink" x="0px" y="0px"
	 width="40px" height="40px" viewBox="0 0 40 40" style="enable-background:new 0 0 40 40;" xml:space="preserve">
<g>
	<g>
		<path d="M14.5,19.509l-0.597,1.192c-0.307,0.614-0.858,1.269-1.442,1.963c-1.231,1.463-2.627,3.121-2.627,5.339
			c0,2.575,2.093,4.669,4.666,4.669c2.572,0,4.666-2.095,4.666-4.669c0-2.218-1.396-3.876-2.629-5.34
			c-0.583-0.693-1.135-1.349-1.441-1.962L14.5,19.509z M17.832,28.004c0,1.839-1.494,3.336-3.332,3.336s-3.333-1.497-3.333-3.336
			c0-1.732,1.177-3.129,2.313-4.48c0.363-0.431,0.715-0.848,1.02-1.267c0.305,0.419,0.655,0.836,1.018,1.267
			C16.656,24.875,17.832,26.272,17.832,28.004z M32.232,13.9l-4.764-4.695l-0.938,0.949l4.766,4.696
			c0.045,0.045,0.062,0.084,0.062,0.148L31.334,28c0,0.735-0.599,1.334-1.334,1.334c-0.737,0-1.338-0.599-1.338-1.334V17.745
			c0-1.33-1.088-2.412-2.426-2.412h-1.582V4.635c0-0.731-0.596-1.327-1.328-1.327H5.65c-0.73,0-1.326,0.595-1.326,1.327v31.697H3
			c-0.368,0-0.666,0.298-0.666,0.667c0,0.368,0.298,0.667,0.666,0.667h23c0.368,0,0.666-0.298,0.666-0.667
			c0-0.369-0.298-0.667-0.666-0.667h-1.346V16.666h1.582c0.603,0,1.094,0.484,1.094,1.079V28c0,1.471,1.197,2.667,2.67,2.667
			c1.471,0,2.666-1.196,2.666-2.666l0.025-13C32.691,14.576,32.533,14.195,32.232,13.9z M23.32,36.333H5.658L5.653,16.666H15h1.203
			h7.117V36.333z M23.32,15.333h-7.951l-4.805-7.686L9.434,8.354l4.363,6.979H5.652L5.65,4.642l17.67-0.007V15.333z"/>
	</g>
</g>
</svg>
