<?xml version="1.0" encoding="iso-8859-1"?>
<!-- Generator: Adobe Illustrator 16.0.2, SVG Export Plug-In . SVG Version: 6.00 Build 0)  -->
<!DOCTYPE svg PUBLIC "-//W3C//DTD SVG 1.1//EN" "http://www.w3.org/Graphics/SVG/1.1/DTD/svg11.dtd">
<svg version="1.1" id="Layer_73" xmlns="http://www.w3.org/2000/svg" xmlns:xlink="http://www.w3.org/1999/xlink" x="0px" y="0px"
	 width="40px" height="40px" viewBox="0 0 40 40" style="enable-background:new 0 0 40 40;" xml:space="preserve">
<g>
	<g>
		<path d="M11.923,7.342c0.124,0.213,0.348,0.332,0.577,0.332c0.114,0,0.229-0.029,0.334-0.09c0.318-0.185,0.427-0.593,0.242-0.911
			l-1.506-2.595c-0.185-0.319-0.593-0.428-0.911-0.242c-0.318,0.185-0.427,0.593-0.242,0.911L11.923,7.342z M6.671,26.92
			l-2.595,1.506c-0.318,0.185-0.427,0.593-0.242,0.911c0.124,0.213,0.348,0.332,0.577,0.332c0.114,0,0.229-0.029,0.334-0.09
			l2.595-1.506c0.318-0.185,0.427-0.593,0.242-0.911C7.397,26.844,6.99,26.735,6.671,26.92z M5.664,19.995
			c-0.001-0.367-0.299-0.665-0.667-0.665c0,0-0.001,0-0.001,0l-3,0.007c-0.368,0.001-0.666,0.3-0.665,0.668
			c0.001,0.367,0.299,0.665,0.667,0.665c0,0,0.001,0,0.001,0l3-0.007C5.367,20.662,5.665,20.363,5.664,19.995z M32.99,13.168
			c0.113,0,0.229-0.029,0.334-0.09l2.596-1.504c0.318-0.185,0.427-0.592,0.242-0.911c-0.185-0.318-0.592-0.427-0.911-0.242
			l-2.596,1.504c-0.318,0.185-0.427,0.592-0.242,0.911C32.536,13.049,32.76,13.168,32.99,13.168z M20,5.667
			C20,5.667,20.001,5.667,20,5.667c0.37,0,0.667-0.3,0.667-0.668l-0.006-3c0-0.368-0.299-0.665-0.667-0.665h-0.001
			c-0.368,0-0.666,0.3-0.665,0.668l0.006,3C19.334,5.369,19.632,5.667,20,5.667z M27.167,7.589c0.105,0.06,0.219,0.088,0.332,0.088
			c0.23,0,0.455-0.12,0.579-0.334l1.495-2.601c0.183-0.319,0.073-0.727-0.246-0.911c-0.319-0.182-0.727-0.073-0.911,0.246
			l-1.495,2.601C26.739,6.998,26.849,7.406,27.167,7.589z M7.341,11.919L4.74,10.424c-0.319-0.183-0.727-0.073-0.911,0.246
			c-0.183,0.319-0.073,0.727,0.246,0.911l2.602,1.495c0.105,0.06,0.219,0.089,0.332,0.089c0.23,0,0.455-0.12,0.579-0.334
			C7.77,12.511,7.66,12.103,7.341,11.919z M19.995,8.342c-6.43,0-11.662,5.231-11.662,11.663c0,6.43,5.232,11.662,11.664,11.662
			s11.664-5.231,11.664-11.662C31.662,13.574,26.428,8.342,19.995,8.342z M19.998,30.333c-5.696,0-10.331-4.634-10.331-10.329
			c0-5.696,4.634-10.33,10.329-10.33c5.698,0,10.333,4.634,10.333,10.33C30.329,25.7,25.694,30.333,19.998,30.333z M35.919,28.42
			l-2.601-1.496c-0.319-0.183-0.727-0.073-0.91,0.246c-0.184,0.319-0.074,0.727,0.245,0.91l2.601,1.496
			c0.105,0.06,0.219,0.089,0.332,0.089c0.23,0,0.455-0.12,0.578-0.334C36.348,29.011,36.238,28.603,35.919,28.42z M12.827,32.41
			c-0.319-0.183-0.726-0.073-0.91,0.246l-1.494,2.602c-0.183,0.319-0.073,0.727,0.246,0.91c0.105,0.06,0.219,0.088,0.332,0.088
			c0.23,0,0.455-0.12,0.579-0.334l1.494-2.602C13.256,33.001,13.146,32.593,12.827,32.41z M37.997,19.33
			C37.997,19.33,37.996,19.33,37.997,19.33l-3.001,0.007c-0.368,0-0.666,0.3-0.665,0.668c0,0.368,0.299,0.665,0.667,0.665
			c0,0,0.001,0,0.001,0l3-0.006c0.368,0,0.666-0.3,0.665-0.668C38.663,19.627,38.365,19.33,37.997,19.33z M28.071,32.657
			c-0.185-0.319-0.593-0.427-0.911-0.242c-0.318,0.185-0.427,0.592-0.242,0.911l1.506,2.595c0.124,0.213,0.348,0.332,0.577,0.332
			c0.114,0,0.229-0.029,0.334-0.09c0.318-0.185,0.427-0.593,0.242-0.911L28.071,32.657z M19.994,34.333h-0.001
			c-0.368,0-0.666,0.3-0.665,0.668l0.006,3c0,0.368,0.299,0.665,0.667,0.665c0,0,0.001,0,0.001,0c0.369,0,0.667-0.3,0.666-0.668
			l-0.006-3C20.66,34.631,20.362,34.333,19.994,34.333z"/>
	</g>
</g>
</svg>
